<svg xmlns="http://www.w3.org/2000/svg" xmlns:xlink="http://www.w3.org/1999/xlink" contentStyleType="text/css" data-diagram-type="CLASS" height="268px" preserveAspectRatio="none" style="width:557px;height:268px;background:#FFFFFF;" version="1.1" viewBox="0 0 557 268" width="557px" zoomAndPan="magnify"><defs/><g><!--cluster it.unimi.di.prog2.e14--><g class="cluster" data-entity="it.unimi.di.prog2.e14" data-source-line="10" data-uid="ent0002" id="cluster_it.unimi.di.prog2.e14"><path d="M16.5,4 L162.6655,4 A3.75,3.75 0 0 1 165.1655,6.5 L172.1655,29.0679 L547.5,29.0679 A2.5,2.5 0 0 1 550,31.5679 L550,228.5 A2.5,2.5 0 0 1 547.5,231 L16.5,231 A2.5,2.5 0 0 1 14,228.5 L14,6.5 A2.5,2.5 0 0 1 16.5,4" fill="none" style="stroke:#000000;stroke-width:1.5;"/><line style="stroke:#000000;stroke-width:1.5;" x1="14" x2="172.1655" y1="29.0679" y2="29.0679"/><text fill="#000000" font-family="sans-serif" font-size="14" font-weight="bold" lengthAdjust="spacing" textLength="145.1655" x="18" y="20.9659">it.unimi.di.prog2.e14</text></g><!--class StringIterators--><g class="entity" data-entity="StringIterators" data-source-line="12" data-uid="ent0003" id="entity_StringIterators"><a href="StringIterators.html" target="_top" title="StringIterators.html" xlink:actuate="onRequest" xlink:href="StringIterators.html" xlink:show="new" xlink:title="StringIterators.html" xlink:type="simple"><rect fill="#F1F1F1" height="86.1358" rx="2.5" ry="2.5" style="stroke:#181818;stroke-width:0.5;" width="336.0849" x="22" y="34"/><ellipse cx="137.4226" cy="50" fill="#ADD1B2" rx="11" ry="11" style="stroke:#181818;stroke-width:1;"/><path d="M140.3913,55.6406 Q139.8132,55.9375 139.1726,56.0781 Q138.532,56.2344 137.8288,56.2344 Q135.3288,56.2344 134.0007,54.5938 Q132.6882,52.9375 132.6882,49.8125 Q132.6882,46.6875 134.0007,45.0313 Q135.3288,43.375 137.8288,43.375 Q138.532,43.375 139.1726,43.5313 Q139.8288,43.6875 140.3913,43.9844 L140.3913,46.7031 Q139.7663,46.125 139.1726,45.8594 Q138.5788,45.5781 137.9538,45.5781 Q136.6101,45.5781 135.9226,46.6563 Q135.2351,47.7188 135.2351,49.8125 Q135.2351,51.9063 135.9226,52.9844 Q136.6101,54.0469 137.9538,54.0469 Q138.5788,54.0469 139.1726,53.7813 Q139.7663,53.5 140.3913,52.9219 L140.3913,55.6406 Z " fill="#000000"/><text fill="#000000" font-family="sans-serif" font-size="14" lengthAdjust="spacing" textLength="96.7397" x="157.9226" y="55.432">StringIterators</text><line style="stroke:#181818;stroke-width:0.5;" x1="23" x2="357.0849" y1="66" y2="66"/><line style="stroke:#181818;stroke-width:0.5;" x1="23" x2="357.0849" y1="74" y2="74"/><ellipse cx="33" cy="89.034" fill="#84BE84" rx="3" ry="3" style="stroke:#038048;stroke-width:1;"/><text fill="#000000" font-family="sans-serif" font-size="14" lengthAdjust="spacing" text-decoration="underline" textLength="310.0849" x="42" y="92.9659">evenIterator(Iterator&lt;String&gt;): Iterator&lt;String&gt;</text><ellipse cx="33" cy="108.1019" fill="#84BE84" rx="3" ry="3" style="stroke:#038048;stroke-width:1;"/><text fill="#000000" font-family="sans-serif" font-size="14" lengthAdjust="spacing" text-decoration="underline" textLength="296.6169" x="42" y="112.0339">uppercase(Iterator&lt;String&gt;): Iterator&lt;String&gt;</text></a></g><!--class StringIteratorsClient--><g class="entity" data-entity="StringIteratorsClient" data-source-line="17" data-uid="ent0004" id="entity_StringIteratorsClient"><a href="StringIteratorsClient.html" target="_top" title="StringIteratorsClient.html" xlink:actuate="onRequest" xlink:href="StringIteratorsClient.html" xlink:show="new" xlink:title="StringIteratorsClient.html" xlink:type="simple"><rect fill="#F1F1F1" height="48" rx="2.5" ry="2.5" style="stroke:#181818;stroke-width:0.5;" width="166.4135" x="376" y="53"/><ellipse cx="391" cy="69" fill="#ADD1B2" rx="11" ry="11" style="stroke:#181818;stroke-width:1;"/><path d="M393.9688,74.6406 Q393.3906,74.9375 392.75,75.0781 Q392.1094,75.2344 391.4063,75.2344 Q388.9063,75.2344 387.5781,73.5938 Q386.2656,71.9375 386.2656,68.8125 Q386.2656,65.6875 387.5781,64.0313 Q388.9063,62.375 391.4063,62.375 Q392.1094,62.375 392.75,62.5313 Q393.4063,62.6875 393.9688,62.9844 L393.9688,65.7031 Q393.3438,65.125 392.75,64.8594 Q392.1563,64.5781 391.5313,64.5781 Q390.1875,64.5781 389.5,65.6563 Q388.8125,66.7188 388.8125,68.8125 Q388.8125,70.9063 389.5,71.9844 Q390.1875,73.0469 391.5313,73.0469 Q392.1563,73.0469 392.75,72.7813 Q393.3438,72.5 393.9688,71.9219 L393.9688,74.6406 Z " fill="#000000"/><text fill="#000000" font-family="sans-serif" font-size="14" lengthAdjust="spacing" textLength="134.4135" x="405" y="74.432">StringIteratorsClient</text><line style="stroke:#181818;stroke-width:0.5;" x1="377" x2="541.4135" y1="85" y2="85"/><line style="stroke:#181818;stroke-width:0.5;" x1="377" x2="541.4135" y1="93" y2="93"/></a></g><!--class IntRangeClient--><g class="entity" data-entity="IntRangeClient" data-source-line="19" data-uid="ent0005" id="entity_IntRangeClient"><a href="IntRangeClient.html" target="_top" title="IntRangeClient.html" xlink:actuate="onRequest" xlink:href="IntRangeClient.html" xlink:show="new" xlink:title="IntRangeClient.html" xlink:type="simple"><rect fill="#F1F1F1" height="67.0679" rx="2.5" ry="2.5" style="stroke:#181818;stroke-width:0.5;" width="335.7909" x="22" y="156"/><ellipse cx="136.7226" cy="172" fill="#ADD1B2" rx="11" ry="11" style="stroke:#181818;stroke-width:1;"/><path d="M139.6914,177.6406 Q139.1133,177.9375 138.4726,178.0781 Q137.832,178.2344 137.1289,178.2344 Q134.6289,178.2344 133.3008,176.5938 Q131.9883,174.9375 131.9883,171.8125 Q131.9883,168.6875 133.3008,167.0313 Q134.6289,165.375 137.1289,165.375 Q137.832,165.375 138.4726,165.5313 Q139.1289,165.6875 139.6914,165.9844 L139.6914,168.7031 Q139.0664,168.125 138.4726,167.8594 Q137.8789,167.5781 137.2539,167.5781 Q135.9101,167.5781 135.2226,168.6563 Q134.5351,169.7188 134.5351,171.8125 Q134.5351,173.9063 135.2226,174.9844 Q135.9101,176.0469 137.2539,176.0469 Q137.8789,176.0469 138.4726,175.7813 Q139.0664,175.5 139.6914,174.9219 L139.6914,177.6406 Z " fill="#000000"/><text fill="#000000" font-family="sans-serif" font-size="14" lengthAdjust="spacing" textLength="97.8456" x="157.2226" y="177.432">IntRangeClient</text><line style="stroke:#181818;stroke-width:0.5;" x1="23" x2="356.7909" y1="188" y2="188"/><line style="stroke:#181818;stroke-width:0.5;" x1="23" x2="356.7909" y1="196" y2="196"/><ellipse cx="33" cy="211.034" fill="#84BE84" rx="3" ry="3" style="stroke:#038048;stroke-width:1;"/><text fill="#000000" font-family="sans-serif" font-size="14" lengthAdjust="spacing" text-decoration="underline" textLength="309.7909" x="42" y="214.9659">printIterationsFirstLast(Iterator&lt;Integer&gt;): void</text></a></g><g class="footer" data-source-line="31"><text fill="#888888" font-family="sans-serif" font-size="10" lengthAdjust="spacing" textLength="2.6" x="269.2" y="243.69">&#160;</text><a href="https://github.com/talsma-ict/umldoclet" target="_top" title="https://github.com/talsma-ict/umldoclet" xlink:actuate="onRequest" xlink:href="https://github.com/talsma-ict/umldoclet" xlink:show="new" xlink:title="https://github.com/talsma-ict/umldoclet" xlink:type="simple"><text fill="#888888" font-family="sans-serif" font-size="10" lengthAdjust="spacing" textLength="76.7199" x="232.14" y="257.31">UMLDoclet 2.2.3</text></a></g><!--SRC=[bLDBRzim3BxtLt3OOIdQABRJBPrH30YoHpDam92cfom7nMOT8RBaYNI6eEX_dspdLMz3CLraa-Bt84W0W3SmiiNMgMp5m1PufGZklqr0cXGoDEWaOmegbnaIB55Rar7p446MlB8Ex4FzbrZda0fhKcKo-2et4iYMBa4IPsTGKytswByadQ0ljrNmeqqqCdH6voUIeY1yrus2w2tCfAPSmdWq4pkqOqqa8j47ZwrLWeOyP6bITBMiOI4JVqsQp2Liq96onjS4EvpAQc8DIsK82kcOAalVjJHSQGr5nIy6q1dUJPvh2zxNsYvXw8miKvZQd-N1xgl2oSmhrd9hImRAaQMHTOgyPa9F9TdtBuwR0YzqxTiCYaLfLAv4gaJXR1O93A_WiNbKdKHB8hXZvnizPgnH2ERpLaIiEDUBXQ-4a_D8B5abJt216pJxnvtznqq3yk4yXdRe7p1bKQ1B9E5_OJozO6Ua5Hh-qrGJtrbhOumDJwN9y53yFF1IGmhFn0sJdn3wh1pnH18VZNaypD1LpZPMfMqtk-k6UAlnwFN1MW_GehtT-hPDb5cFhFP3yFhwxzdxQf2rCkXt9raRz2w34zgQhdV2j-FwOURp5ND1SQ-NALwLIv7OlCVr4dLLmhqorscpFQqzycrjzkBBOK6h8U-6KJVipu91VDMFmxw8eZ0SXDV1u288uo2OVogTBR0tjJakVWC0]--></g></svg>