<svg xmlns="http://www.w3.org/2000/svg" xmlns:xlink="http://www.w3.org/1999/xlink" contentStyleType="text/css" data-diagram-type="CLASS" height="408px" preserveAspectRatio="none" style="width:207px;height:408px;background:#FFFFFF;" version="1.1" viewBox="0 0 207 408" width="207px" zoomAndPan="magnify"><defs/><g><!--class it.unimi.di.prog2.h11.builder.NutritionFacts.Builder--><g class="entity" data-entity="it.unimi.di.prog2.h11.builder.NutritionFacts.Builder" data-source-line="13" data-uid="ent0002" id="entity_it.unimi.di.prog2.h11.builder.NutritionFacts.Builder"><a href="NutritionFacts.Builder.html" target="_top" title="NutritionFacts.Builder.html" xlink:actuate="onRequest" xlink:href="NutritionFacts.Builder.html" xlink:show="new" xlink:title="NutritionFacts.Builder.html" xlink:type="simple"><rect fill="#F1F1F1" height="287.5029" rx="2.5" ry="2.5" style="stroke:#181818;stroke-width:0.5;" width="194.7973" x="6" y="91"/><ellipse cx="29.3943" cy="112.344" fill="#ADD1B2" rx="11" ry="11" style="stroke:#181818;stroke-width:1;"/><path d="M32.363,117.9846 Q31.7849,118.2815 31.1443,118.4221 Q30.5036,118.5783 29.8005,118.5783 Q27.3005,118.5783 25.9724,116.9377 Q24.6599,115.2815 24.6599,112.1565 Q24.6599,109.0315 25.9724,107.3752 Q27.3005,105.719 29.8005,105.719 Q30.5036,105.719 31.1443,105.8752 Q31.8005,106.0315 32.363,106.3283 L32.363,109.0471 Q31.738,108.469 31.1443,108.2033 Q30.5505,107.9221 29.9255,107.9221 Q28.5818,107.9221 27.8943,109.0002 Q27.2068,110.0627 27.2068,112.1565 Q27.2068,114.2502 27.8943,115.3283 Q28.5818,116.3908 29.9255,116.3908 Q30.5505,116.3908 31.1443,116.1252 Q31.738,115.844 32.363,115.2658 L32.363,117.9846 Z " fill="#000000"/><text fill="#000000" font-family="sans-serif" font-size="14" lengthAdjust="spacing" textLength="144.1434" x="45.2596" y="110.9659">NutritionFacts.Builder</text><text fill="#000000" font-family="sans-serif" font-size="10" lengthAdjust="spacing" textLength="134.4199" x="50.1214" y="125.7579">it.unimi.di.prog2.h11.builder</text><line style="stroke:#181818;stroke-width:0.5;" x1="7" x2="199.7973" y1="133.6879" y2="133.6879"/><rect fill="none" height="6" style="stroke:#C82930;stroke-width:1;" width="6" x="14" y="145.7219"/><text fill="#000000" font-family="sans-serif" font-size="14" lengthAdjust="spacing" textLength="98.8536" x="26" y="152.6538">servingSize: int</text><rect fill="none" height="6" style="stroke:#C82930;stroke-width:1;" width="6" x="14" y="164.7898"/><text fill="#000000" font-family="sans-serif" font-size="14" lengthAdjust="spacing" textLength="79.7857" x="26" y="171.7218">servings: int</text><rect fill="none" height="6" style="stroke:#C82930;stroke-width:1;" width="6" x="14" y="183.8577"/><text fill="#000000" font-family="sans-serif" font-size="14" lengthAdjust="spacing" textLength="75.3617" x="26" y="190.7897">calories: int</text><rect fill="none" height="6" style="stroke:#C82930;stroke-width:1;" width="6" x="14" y="202.9256"/><text fill="#000000" font-family="sans-serif" font-size="14" lengthAdjust="spacing" textLength="42.4338" x="26" y="209.8576">fat: int</text><rect fill="none" height="6" style="stroke:#C82930;stroke-width:1;" width="6" x="14" y="221.9935"/><text fill="#000000" font-family="sans-serif" font-size="14" lengthAdjust="spacing" textLength="73.8497" x="26" y="228.9255">sodium: int</text><rect fill="none" height="6" style="stroke:#C82930;stroke-width:1;" width="6" x="14" y="241.0614"/><text fill="#000000" font-family="sans-serif" font-size="14" lengthAdjust="spacing" textLength="113.1336" x="26" y="247.9934">carbohydrate: int</text><line style="stroke:#181818;stroke-width:0.5;" x1="7" x2="199.7973" y1="256.0954" y2="256.0954"/><ellipse cx="17" cy="271.1294" fill="#84BE84" rx="3" ry="3" style="stroke:#038048;stroke-width:1;"/><text fill="#000000" font-family="sans-serif" font-size="14" lengthAdjust="spacing" textLength="97.6916" x="26" y="275.0613">Builder(int, int)</text><ellipse cx="17" cy="290.1973" fill="#84BE84" rx="3" ry="3" style="stroke:#038048;stroke-width:1;"/><text fill="#000000" font-family="sans-serif" font-size="14" lengthAdjust="spacing" textLength="131.0255" x="26" y="294.1293">calories(int): Builder</text><ellipse cx="17" cy="309.2652" fill="#84BE84" rx="3" ry="3" style="stroke:#038048;stroke-width:1;"/><text fill="#000000" font-family="sans-serif" font-size="14" lengthAdjust="spacing" textLength="98.0976" x="26" y="313.1972">fat(int): Builder</text><ellipse cx="17" cy="328.3331" fill="#84BE84" rx="3" ry="3" style="stroke:#038048;stroke-width:1;"/><text fill="#000000" font-family="sans-serif" font-size="14" lengthAdjust="spacing" textLength="129.5135" x="26" y="332.2651">sodium(int): Builder</text><ellipse cx="17" cy="347.401" fill="#84BE84" rx="3" ry="3" style="stroke:#038048;stroke-width:1;"/><text fill="#000000" font-family="sans-serif" font-size="14" lengthAdjust="spacing" textLength="168.7973" x="26" y="351.333">carbohydrate(int): Builder</text><ellipse cx="17" cy="366.4689" fill="#84BE84" rx="3" ry="3" style="stroke:#038048;stroke-width:1;"/><text fill="#000000" font-family="sans-serif" font-size="14" lengthAdjust="spacing" textLength="142.0155" x="26" y="370.4009">build(): NutritionFacts</text></a></g><!--class it.unimi.di.prog2.h11.builder.NutritionFacts--><g class="entity" data-entity="it.unimi.di.prog2.h11.builder.NutritionFacts" data-source-line="28" data-uid="ent0003" id="entity_it.unimi.di.prog2.h11.builder.NutritionFacts"><a href="NutritionFacts.html" target="_top" title="NutritionFacts.html" xlink:actuate="onRequest" xlink:href="NutritionFacts.html" xlink:show="new" xlink:title="NutritionFacts.html" xlink:type="simple"><rect fill="#F1F1F1" height="42.6879" rx="2.5" ry="2.5" style="stroke:#181818;stroke-width:0.5;" width="166.4199" x="20.5" y="12"/><ellipse cx="35.5" cy="33.344" fill="#ADD1B2" rx="11" ry="11" style="stroke:#181818;stroke-width:1;"/><path d="M38.4688,38.9846 Q37.8906,39.2815 37.25,39.4221 Q36.6094,39.5783 35.9063,39.5783 Q33.4063,39.5783 32.0781,37.9377 Q30.7656,36.2815 30.7656,33.1565 Q30.7656,30.0315 32.0781,28.3752 Q33.4063,26.719 35.9063,26.719 Q36.6094,26.719 37.25,26.8752 Q37.9063,27.0315 38.4688,27.3283 L38.4688,30.0471 Q37.8438,29.469 37.25,29.2033 Q36.6563,28.9221 36.0313,28.9221 Q34.6875,28.9221 34,30.0002 Q33.3125,31.0627 33.3125,33.1565 Q33.3125,35.2502 34,36.3283 Q34.6875,37.3908 36.0313,37.3908 Q36.6563,37.3908 37.25,37.1252 Q37.8438,36.844 38.4688,36.2658 L38.4688,38.9846 Z " fill="#000000"/><text fill="#000000" font-family="sans-serif" font-size="14" lengthAdjust="spacing" textLength="93.1277" x="70.1461" y="31.9659">NutritionFacts</text><text fill="#000000" font-family="sans-serif" font-size="10" lengthAdjust="spacing" textLength="134.4199" x="49.5" y="46.7579">it.unimi.di.prog2.h11.builder</text></a></g><g class="link" data-entity-1="it.unimi.di.prog2.h11.builder.NutritionFacts" data-entity-2="it.unimi.di.prog2.h11.builder.NutritionFacts.Builder" data-uid="lnk4" id="link_it.unimi.di.prog2.h11.builder.NutritionFacts_it.unimi.di.prog2.h11.builder.NutritionFacts.Builder"><ellipse cx="103.5" cy="63.0986" fill="#FFFFFF" rx="8" ry="8" style="stroke:#181818;stroke-width:1;"/><line style="stroke:#181818;stroke-width:1;" x1="103.5" x2="103.5" y1="71.0986" y2="55.0986"/><line style="stroke:#181818;stroke-width:1;" x1="95.5" x2="111.5" y1="63.0986" y2="63.0986"/><path d="M103.5,71.0986 C103.5,80.7554 103.5,77.1744 103.5,90.9623" fill="none" style="stroke:#181818;stroke-width:1;"/></g><g class="footer" data-source-line="38"><text fill="#888888" font-family="sans-serif" font-size="10" lengthAdjust="spacing" textLength="2.6" x="98.7" y="383.69">&#160;</text><a href="https://github.com/talsma-ict/umldoclet" target="_top" title="https://github.com/talsma-ict/umldoclet" xlink:actuate="onRequest" xlink:href="https://github.com/talsma-ict/umldoclet" xlink:show="new" xlink:title="https://github.com/talsma-ict/umldoclet" xlink:type="simple"><text fill="#888888" font-family="sans-serif" font-size="10" lengthAdjust="spacing" textLength="76.7199" x="61.64" y="397.31">UMLDoclet 2.2.3</text></a></g><!--SRC=[jLJRRjD047tlLmpbWLIfDxu4IgEgKWcKYm92RVgKzc5ZJ-nLrxjcTrnaKF-TNJjDqhH5WCI-M9upC-VCHGC0y0B6kcgCo0i2qa25i73nUG9SPP2ZGiC9Cn0bpz727ALMkUqS4NXDXJQW5-rVger1MscL2PN39tx3mUhQf6ZPpWwqLDExxD-vtSW-RxpnhKub4lJ6UnkIuZ1w5SHX_1AcNDgImyVnb2sphMDY5hC4N6ufKbJMfQnLXgQLTLBnr7qc7R8FDsYiqCh5XCiyljHKA-92MQYu8UjB-Ygv8gyrOfwV7K3lv7noNrjus6hRXnEZU9t1cVvMhyfzLXcUEyMIDxeci2KILxp3h1EjUEdQnLCyHqVAoNLIQOKjNeWC0SkA6bW8b9dTjhfaXNRcrfvARYti7bdn0qVHyFXBJKQGA_AKfsJPcrf8rurBjNG8ZmMnMebIi4omokWyPaKKiNddjmjkEB_rO8yJm6psEC0AAkNL5VnirVeNM3GtRatElI0GYXuWTikSSgcDm6tpWjDslCv4NJw8DdDTD9dVj_jGVwcnvupx7jbRGtUS7jiRmT9pZJlofw1EnLFeffodVDfUznnolwUjm-sVpFs_pVlXdBlvTgB-AbC_2FvfrJgg8qkDnEDLpnPQarl3zPhvzw6fq4o4kXvhDqru_lfnzC8V32aKkXkLNYjqZGrNdhSTtM23RybrgMQpWgYoey4W5rJKSvRgSa3jiGf4IeEwb5btfRRkbMjOTt_UhmwXFoP150THCWqFHiDa52NiC0cJOH951_qm6eNXx5rjT8M3CrtYrIy0]--></g></svg>