<svg xmlns="http://www.w3.org/2000/svg" xmlns:xlink="http://www.w3.org/1999/xlink" contentStyleType="text/css" data-diagram-type="CLASS" height="149px" preserveAspectRatio="none" style="width:224px;height:149px;background:#FFFFFF;" version="1.1" viewBox="0 0 224 149" width="224px" zoomAndPan="magnify"><defs/><g><!--class it.unimi.di.prog2.h04.BandieraList--><g class="entity" data-entity="it.unimi.di.prog2.h04.BandieraList" data-source-line="13" data-uid="ent0002" id="entity_it.unimi.di.prog2.h04.BandieraList"><a href="BandieraList.html" target="_top" title="BandieraList.html" xlink:actuate="onRequest" xlink:href="BandieraList.html" xlink:show="new" xlink:title="BandieraList.html" xlink:type="simple"><rect fill="#F1F1F1" height="107.8917" rx="2.5" ry="2.5" style="stroke:#181818;stroke-width:0.5;" width="211.7793" x="6" y="12"/><ellipse cx="58.4747" cy="33.344" fill="#ADD1B2" rx="11" ry="11" style="stroke:#181818;stroke-width:1;"/><path d="M61.4434,38.9846 Q60.8653,39.2815 60.2247,39.4221 Q59.5841,39.5783 58.8809,39.5783 Q56.3809,39.5783 55.0528,37.9377 Q53.7403,36.2815 53.7403,33.1565 Q53.7403,30.0315 55.0528,28.3752 Q56.3809,26.719 58.8809,26.719 Q59.5841,26.719 60.2247,26.8752 Q60.8809,27.0315 61.4434,27.3283 L61.4434,30.0471 Q60.8184,29.469 60.2247,29.2033 Q59.6309,28.9221 59.0059,28.9221 Q57.6622,28.9221 56.9747,30.0002 Q56.2872,31.0627 56.2872,33.1565 Q56.2872,35.2502 56.9747,36.3283 Q57.6622,37.3908 59.0059,37.3908 Q59.6309,37.3908 60.2247,37.1252 Q60.8184,36.844 61.4434,36.2658 L61.4434,38.9846 Z " fill="#000000"/><text fill="#000000" font-family="sans-serif" font-size="14" lengthAdjust="spacing" textLength="82.0677" x="87.1058" y="31.9659">BandieraList</text><text fill="#000000" font-family="sans-serif" font-size="10" lengthAdjust="spacing" textLength="98.3299" x="78.9747" y="46.7579">it.unimi.di.prog2.h04</text><line style="stroke:#181818;stroke-width:0.5;" x1="7" x2="216.7793" y1="54.6879" y2="54.6879"/><ellipse cx="17" cy="69.7219" fill="#84BE84" rx="3" ry="3" style="stroke:#038048;stroke-width:1;"/><text fill="#000000" font-family="sans-serif" font-size="14" lengthAdjust="spacing" text-decoration="underline" textLength="124.0535" x="26" y="73.6538">read(): List&lt;String&gt;</text><ellipse cx="17" cy="88.7898" fill="#84BE84" rx="3" ry="3" style="stroke:#038048;stroke-width:1;"/><text fill="#000000" font-family="sans-serif" font-size="14" lengthAdjust="spacing" text-decoration="underline" textLength="185.7793" x="26" y="92.7218">maxLength(List&lt;String&gt;): int</text><ellipse cx="17" cy="107.8577" fill="#84BE84" rx="3" ry="3" style="stroke:#038048;stroke-width:1;"/><text fill="#000000" font-family="sans-serif" font-size="14" lengthAdjust="spacing" text-decoration="underline" textLength="125.4115" x="26" y="111.7897">main(String[]): void</text></a></g><g class="footer" data-source-line="25"><text fill="#888888" font-family="sans-serif" font-size="10" lengthAdjust="spacing" textLength="2.6" x="107.2" y="124.69">&#160;</text><a href="https://github.com/talsma-ict/umldoclet" target="_top" title="https://github.com/talsma-ict/umldoclet" xlink:actuate="onRequest" xlink:href="https://github.com/talsma-ict/umldoclet" xlink:show="new" xlink:title="https://github.com/talsma-ict/umldoclet" xlink:type="simple"><text fill="#888888" font-family="sans-serif" font-size="10" lengthAdjust="spacing" textLength="76.7199" x="70.14" y="138.31">UMLDoclet 2.2.3</text></a></g><!--SRC=[RLDTJzj047pdLspfGuCWbujDIuaG4ashVYYLAWXF8G-BlTWdpdlktJfjYlZlFTiff2ZtOjtktCpStXW0u0rCNRtsfYW5n86K9i3rznaWvr0GaqUX74o51GMu9Uku23sG01ifdGTtr-qovps5sd5kk81lk488hl4P1RMt1vtK_1_xBmnRxBVhjlZHPPO41jE3BKk97hyR9Zfv2tEqeKBuEfsh3TlpcKGbAeN8RKr6729bmpdvpjP5ZLdypFhE4Qp81-Cudj4RdlQgcMD1mm5gz1BQA_smoD9w7QjMNvt0uE9gzhytVTfvEu8BpzZaSEb-Da_NVLLxBA9ZYslN28IA11dxNeYc6QiuBipeYg8eIfmaEwQkNvgSWAfQrd1doERXPJMIbIwMktfcCGJOFmlc3qt6n-SVuerCdEtC1BdXJLcV6r4DcygetAZQko9HfJxUX_WKEpjgcmOMY-sjAgMoooKyTFhjUWY2Oh97EFI4-U1W0Ytkx4fyJCFv3bY5lsV4XPI3RM0yPrXsmWqFUj1Y6L4hP_8EzjZFu2p8sjApq9rp4XFmRB1TNzOr-PdX-wcpSTolt-_kNhVXiOOfvZMxPuh3rK_8nrvkjAMtqRhXnQ8KgSDaD2gCbCsjobmraYwuGvF9gAbitYVsHNQNoqqMFp_z56smXkDaE4xd-cHodCQ7LMbwSgfFKvqUwl54wyMdnhkQHfUkekLV]--></g></svg>