<svg xmlns="http://www.w3.org/2000/svg" xmlns:xlink="http://www.w3.org/1999/xlink" contentStyleType="text/css" data-diagram-type="CLASS" height="111px" preserveAspectRatio="none" style="width:164px;height:111px;background:#FFFFFF;" version="1.1" viewBox="0 0 164 111" width="164px" zoomAndPan="magnify"><defs/><g><!--class it.unimi.di.prog2.s03.SommaCentesimi--><g class="entity" data-entity="it.unimi.di.prog2.s03.SommaCentesimi" data-source-line="13" data-uid="ent0002" id="entity_it.unimi.di.prog2.s03.SommaCentesimi"><a href="SommaCentesimi.html" target="_top" title="SommaCentesimi.html" xlink:actuate="onRequest" xlink:href="SommaCentesimi.html" xlink:show="new" xlink:title="SommaCentesimi.html" xlink:type="simple"><rect fill="#F1F1F1" height="69.7558" rx="2.5" ry="2.5" style="stroke:#181818;stroke-width:0.5;" width="151.4115" x="6" y="12"/><ellipse cx="22.7352" cy="33.344" fill="#ADD1B2" rx="11" ry="11" style="stroke:#181818;stroke-width:1;"/><path d="M25.7039,38.9846 Q25.1258,39.2815 24.4852,39.4221 Q23.8446,39.5783 23.1414,39.5783 Q20.6414,39.5783 19.3133,37.9377 Q18.0008,36.2815 18.0008,33.1565 Q18.0008,30.0315 19.3133,28.3752 Q20.6414,26.719 23.1414,26.719 Q23.8446,26.719 24.4852,26.8752 Q25.1414,27.0315 25.7039,27.3283 L25.7039,30.0471 Q25.0789,29.469 24.4852,29.2033 Q23.8914,28.9221 23.2664,28.9221 Q21.9227,28.9221 21.2352,30.0002 Q20.5477,31.0627 20.5477,33.1565 Q20.5477,35.2502 21.2352,36.3283 Q21.9227,37.3908 23.2664,37.3908 Q23.8914,37.3908 24.4852,37.1252 Q25.0789,36.844 25.7039,36.2658 L25.7039,38.9846 Z " fill="#000000"/><text fill="#000000" font-family="sans-serif" font-size="14" lengthAdjust="spacing" textLength="115.5556" x="37.1208" y="31.9659">SommaCentesimi</text><text fill="#000000" font-family="sans-serif" font-size="10" lengthAdjust="spacing" textLength="96.9399" x="46.4286" y="46.7579">it.unimi.di.prog2.s03</text><line style="stroke:#181818;stroke-width:0.5;" x1="7" x2="156.4115" y1="54.6879" y2="54.6879"/><ellipse cx="17" cy="69.7219" fill="#84BE84" rx="3" ry="3" style="stroke:#038048;stroke-width:1;"/><text fill="#000000" font-family="sans-serif" font-size="14" lengthAdjust="spacing" text-decoration="underline" textLength="125.4115" x="26" y="73.6538">main(String[]): void</text></a></g><g class="footer" data-source-line="23"><text fill="#888888" font-family="sans-serif" font-size="10" lengthAdjust="spacing" textLength="2.6" x="76.7" y="86.69">&#160;</text><a href="https://github.com/talsma-ict/umldoclet" target="_top" title="https://github.com/talsma-ict/umldoclet" xlink:actuate="onRequest" xlink:href="https://github.com/talsma-ict/umldoclet" xlink:show="new" xlink:title="https://github.com/talsma-ict/umldoclet" xlink:type="simple"><text fill="#888888" font-family="sans-serif" font-size="10" lengthAdjust="spacing" textLength="76.7199" x="39.64" y="100.31">UMLDoclet 2.2.3</text></a></g><!--SRC=[RLBRRjf047tFLqpJXn8bh2-GKb24X6ZLYwXK1VBa-66n1tkLlRYxOoeQyUzTsvH0b7snF9TppimS080FC3VLpegY9203L0e73pyNm7KE1Mgqd307eNY13jOeZIvSLuZ0QogD1RDf_p9ZBRhAw5pe0dxmBGTdQfkXOnSNq5Aj_gF_uUu4VRrhWfzD9f6WDxywaHI7qST-7CQtiEBIAGxVvojsG7lfYLdC1k2nfSXGEmzPwnnjAsjMySn_5btc1hPedJ3QzuG7d6RKp6ZYGZkek2NNZFHBSasDreWr_6m4lTboSQuj7BVQRc1cDQzpk3U_w-EuxohB2wzOyfsf2Pn2ufftEUT5QwxykdY6I_IadFmcjT7OvakH8w2gQ0SRWJ9thwCUh3G-tCOpoPs3opid_k8a6awNHYa-HqteX1AF-f08fu9OhNs8vO9LrXGnS-7W4lmntiomSo18alC0Aqd9D8NdLaNpdXrn4jaUhfNVPcz9rdiXIQyci3KYRylsdUOxHpk9qsFdnXZo5tk1QjwtNOLs8VJJt4Y_dlUVtiu-DCUMGgFtL_QaqIyZF5RkExhWXE_0zQYJf2Igt2G82a5blMQPKG6rHkkBZ89QoRnps2klfUd1Er-F9cwCq8_YVZHOXQF9SE0FmSB1A8g6uzlnTHXDmZ3vKbjJON1l5AR_0000]--></g></svg>