<svg xmlns="http://www.w3.org/2000/svg" xmlns:xlink="http://www.w3.org/1999/xlink" contentStyleType="text/css" data-diagram-type="CLASS" height="111px" preserveAspectRatio="none" style="width:283px;height:111px;background:#FFFFFF;" version="1.1" viewBox="0 0 283 111" width="283px" zoomAndPan="magnify"><defs/><g><!--class it.unimi.di.prog2.h06.ListUtils--><g class="entity" data-entity="it.unimi.di.prog2.h06.ListUtils" data-source-line="13" data-uid="ent0002" id="entity_it.unimi.di.prog2.h06.ListUtils"><a href="ListUtils.html" target="_top" title="ListUtils.html" xlink:actuate="onRequest" xlink:href="ListUtils.html" xlink:show="new" xlink:title="ListUtils.html" xlink:type="simple"><rect fill="#F1F1F1" height="69.7558" rx="2.5" ry="2.5" style="stroke:#181818;stroke-width:0.5;" width="270.2571" x="6" y="12"/><ellipse cx="87.7136" cy="33.344" fill="#ADD1B2" rx="11" ry="11" style="stroke:#181818;stroke-width:1;"/><path d="M90.6823,38.9846 Q90.1042,39.2815 89.4636,39.4221 Q88.823,39.5783 88.1198,39.5783 Q85.6198,39.5783 84.2917,37.9377 Q82.9792,36.2815 82.9792,33.1565 Q82.9792,30.0315 84.2917,28.3752 Q85.6198,26.719 88.1198,26.719 Q88.823,26.719 89.4636,26.8752 Q90.1198,27.0315 90.6823,27.3283 L90.6823,30.0471 Q90.0573,29.469 89.4636,29.2033 Q88.8698,28.9221 88.2448,28.9221 Q86.9011,28.9221 86.2136,30.0002 Q85.5261,31.0627 85.5261,33.1565 Q85.5261,35.2502 86.2136,36.3283 Q86.9011,37.3908 88.2448,37.3908 Q88.8698,37.3908 89.4636,37.1252 Q90.0573,36.844 90.6823,36.2658 L90.6823,38.9846 Z " fill="#000000"/><text fill="#000000" font-family="sans-serif" font-size="14" lengthAdjust="spacing" textLength="51.9258" x="131.4156" y="31.9659">ListUtils</text><text fill="#000000" font-family="sans-serif" font-size="10" lengthAdjust="spacing" textLength="98.3299" x="108.2136" y="46.7579">it.unimi.di.prog2.h06</text><line style="stroke:#181818;stroke-width:0.5;" x1="7" x2="275.2571" y1="54.6879" y2="54.6879"/><ellipse cx="17" cy="69.7219" fill="#84BE84" rx="3" ry="3" style="stroke:#038048;stroke-width:1;"/><text fill="#000000" font-family="sans-serif" font-size="14" lengthAdjust="spacing" text-decoration="underline" textLength="244.2571" x="26" y="73.6538">binarySearch(List&lt;String&gt;, String): int</text></a></g><g class="footer" data-source-line="23"><text fill="#888888" font-family="sans-serif" font-size="10" lengthAdjust="spacing" textLength="2.6" x="136.2" y="86.69">&#160;</text><a href="https://github.com/talsma-ict/umldoclet" target="_top" title="https://github.com/talsma-ict/umldoclet" xlink:actuate="onRequest" xlink:href="https://github.com/talsma-ict/umldoclet" xlink:show="new" xlink:title="https://github.com/talsma-ict/umldoclet" xlink:type="simple"><text fill="#888888" font-family="sans-serif" font-size="10" lengthAdjust="spacing" textLength="76.7199" x="99.14" y="100.31">UMLDoclet 2.2.3</text></a></g><!--SRC=[RLB1Rjim3BttAxZki1PD5DlDcYu80XJPi6x8WA59JcaEZCpOGcN9a-WENj5_dsndQLPK5yka-DuZ-G00Fi3CbhLJMSx05ZXN7bO_ve0cXOmCEMHAGHMOaOSjQMiotpqam8fpwy3ksZzfdIDVMfCgay5tV4JmjdAIl3WvWPPg-G_zD_eZz6tT13zRgOdXR7P-92c9ugj-4YKVOOdQ5mZVPaknHtkfIKGYBY5WQoN9-01PcPHSA-kcH1a-yoxJWqToNbaJQg8zJjEgj8PH6GybElPDIpyr6cwqngBX5oCukrdC_zSMVMgrzU366QnIkBE_gaExxqg7ML2iiROLWo-8qM2Nyq6qmIAC2oKjA90YXqaQQwZDvoebeABa6dQATEfVHmDORaEuZKkDtiFfnAi_D8w7qxdol6Ab_RtPnwAfOb4PLIYHAb4wcoKYZwvE8UpXpOmuOC1wVRYBd0kzsS1JIzkS9y_8IZx3nLOPTFM2qCdyhAcOBDW59qnxq5tEnw0CjvNFdUw9vrhJz02sivR3rbxGctDRb-JcoZpCh0uZUd_zTdRLB5mhGy5Zyi5G64XqUFdSqGsE-FPSzsQzpfbBFnuCCiLvjHNI5WDkpTPNaWTLeTFEPQ_yjjdi_VFrOEJ63FquwSUNosWq7bw6POWe6LsFXd4ykeZYSHIjlrJEbZIuimLj_W80]--></g></svg>