<svg xmlns="http://www.w3.org/2000/svg" xmlns:xlink="http://www.w3.org/1999/xlink" contentStyleType="text/css" data-diagram-type="CLASS" height="146px" preserveAspectRatio="none" style="width:477px;height:146px;background:#FFFFFF;" version="1.1" viewBox="0 0 477 146" width="477px" zoomAndPan="magnify"><defs/><g><!--cluster it.unimi.di.prog2.h06--><g class="cluster" data-entity="it.unimi.di.prog2.h06" data-source-line="10" data-uid="ent0002" id="cluster_it.unimi.di.prog2.h06"><path d="M16.5,4 L163.5895,4 A3.75,3.75 0 0 1 166.0895,6.5 L173.0895,29.0679 L467.5,29.0679 A2.5,2.5 0 0 1 470,31.5679 L470,106.5 A2.5,2.5 0 0 1 467.5,109 L16.5,109 A2.5,2.5 0 0 1 14,106.5 L14,6.5 A2.5,2.5 0 0 1 16.5,4" fill="none" style="stroke:#000000;stroke-width:1.5;"/><line style="stroke:#000000;stroke-width:1.5;" x1="14" x2="173.0895" y1="29.0679" y2="29.0679"/><text fill="#000000" font-family="sans-serif" font-size="14" font-weight="bold" lengthAdjust="spacing" textLength="146.0895" x="18" y="20.9659">it.unimi.di.prog2.h06</text></g><!--class ListUtils--><g class="entity" data-entity="ListUtils" data-source-line="12" data-uid="ent0003" id="entity_ListUtils"><a href="ListUtils.html" target="_top" title="ListUtils.html" xlink:actuate="onRequest" xlink:href="ListUtils.html" xlink:show="new" xlink:title="ListUtils.html" xlink:type="simple"><rect fill="#F1F1F1" height="67.0679" rx="2.5" ry="2.5" style="stroke:#181818;stroke-width:0.5;" width="270.2571" x="192" y="34"/><ellipse cx="296.9156" cy="50" fill="#ADD1B2" rx="11" ry="11" style="stroke:#181818;stroke-width:1;"/><path d="M299.8844,55.6406 Q299.3063,55.9375 298.6656,56.0781 Q298.025,56.2344 297.3219,56.2344 Q294.8219,56.2344 293.4938,54.5938 Q292.1813,52.9375 292.1813,49.8125 Q292.1813,46.6875 293.4938,45.0313 Q294.8219,43.375 297.3219,43.375 Q298.025,43.375 298.6656,43.5313 Q299.3219,43.6875 299.8844,43.9844 L299.8844,46.7031 Q299.2594,46.125 298.6656,45.8594 Q298.0719,45.5781 297.4469,45.5781 Q296.1031,45.5781 295.4156,46.6563 Q294.7281,47.7188 294.7281,49.8125 Q294.7281,51.9063 295.4156,52.9844 Q296.1031,54.0469 297.4469,54.0469 Q298.0719,54.0469 298.6656,53.7813 Q299.2594,53.5 299.8844,52.9219 L299.8844,55.6406 Z " fill="#000000"/><text fill="#000000" font-family="sans-serif" font-size="14" lengthAdjust="spacing" textLength="51.9258" x="317.4156" y="55.432">ListUtils</text><line style="stroke:#181818;stroke-width:0.5;" x1="193" x2="461.2571" y1="66" y2="66"/><line style="stroke:#181818;stroke-width:0.5;" x1="193" x2="461.2571" y1="74" y2="74"/><ellipse cx="203" cy="89.034" fill="#84BE84" rx="3" ry="3" style="stroke:#038048;stroke-width:1;"/><text fill="#000000" font-family="sans-serif" font-size="14" lengthAdjust="spacing" text-decoration="underline" textLength="244.2571" x="212" y="92.9659">binarySearch(List&lt;String&gt;, String): int</text></a></g><!--class ListUtilsClient--><g class="entity" data-entity="ListUtilsClient" data-source-line="16" data-uid="ent0004" id="entity_ListUtilsClient"><a href="ListUtilsClient.html" target="_top" title="ListUtilsClient.html" xlink:actuate="onRequest" xlink:href="ListUtilsClient.html" xlink:show="new" xlink:title="ListUtilsClient.html" xlink:type="simple"><rect fill="#F1F1F1" height="67.0679" rx="2.5" ry="2.5" style="stroke:#181818;stroke-width:0.5;" width="151.4115" x="22.5" y="34"/><ellipse cx="50.9153" cy="50" fill="#ADD1B2" rx="11" ry="11" style="stroke:#181818;stroke-width:1;"/><path d="M53.8841,55.6406 Q53.306,55.9375 52.6653,56.0781 Q52.0247,56.2344 51.3216,56.2344 Q48.8216,56.2344 47.4935,54.5938 Q46.181,52.9375 46.181,49.8125 Q46.181,46.6875 47.4935,45.0313 Q48.8216,43.375 51.3216,43.375 Q52.0247,43.375 52.6653,43.5313 Q53.3216,43.6875 53.8841,43.9844 L53.8841,46.7031 Q53.2591,46.125 52.6653,45.8594 Q52.0716,45.5781 51.4466,45.5781 Q50.1028,45.5781 49.4153,46.6563 Q48.7278,47.7188 48.7278,49.8125 Q48.7278,51.9063 49.4153,52.9844 Q50.1028,54.0469 51.4466,54.0469 Q52.0716,54.0469 52.6653,53.7813 Q53.2591,53.5 53.8841,52.9219 L53.8841,55.6406 Z " fill="#000000"/><text fill="#000000" font-family="sans-serif" font-size="14" lengthAdjust="spacing" textLength="89.5997" x="67.8965" y="55.432">ListUtilsClient</text><line style="stroke:#181818;stroke-width:0.5;" x1="23.5" x2="172.9115" y1="66" y2="66"/><line style="stroke:#181818;stroke-width:0.5;" x1="23.5" x2="172.9115" y1="74" y2="74"/><ellipse cx="33.5" cy="89.034" fill="#84BE84" rx="3" ry="3" style="stroke:#038048;stroke-width:1;"/><text fill="#000000" font-family="sans-serif" font-size="14" lengthAdjust="spacing" text-decoration="underline" textLength="125.4115" x="42.5" y="92.9659">main(String[]): void</text></a></g><g class="footer" data-source-line="28"><text fill="#888888" font-family="sans-serif" font-size="10" lengthAdjust="spacing" textLength="2.6" x="229.2" y="121.69">&#160;</text><a href="https://github.com/talsma-ict/umldoclet" target="_top" title="https://github.com/talsma-ict/umldoclet" xlink:actuate="onRequest" xlink:href="https://github.com/talsma-ict/umldoclet" xlink:show="new" xlink:title="https://github.com/talsma-ict/umldoclet" xlink:type="simple"><text fill="#888888" font-family="sans-serif" font-size="10" lengthAdjust="spacing" textLength="76.7199" x="192.14" y="135.31">UMLDoclet 2.2.3</text></a></g><!--SRC=[XLB9Rjim4BtdAwReeGvYKukNf48Gm72BBd218hPFgWvZYP48KwHAZXm8GVwzbEIwIj2Yl72PcVVU31y0m3jOwQen8Yy8I0CLmiBksnfGPP1pnGqIpq2Kc7CBUowrocsVo05hAhG1_T3TKcqCjvLMcL0vVCKZWjMrIRbb5nVGKMr_ep-Y7Q3lc_RnWqub9nYjBWUIGZzOJ48_dCCMfIqHlgosx8JsfoPa8Pk2mvOYvSewo5fbt7IobXMcRbltaJ4SkR52ArVZdt3QLbEj28MoKA4XsxRqNQAYLcl0Mdvs3QFbPlrIc_- -qpQ6fL5OPt2lVzRdTjzK1dEdM6AZQm9RSaA5NSWwpPOxAYGtloZg2vpGWnip26Ar4gLWcM2LqNd82dy1JtrIkrA9rhgEBEr8I0jnV3wpWagP92uR1kl94f98d-5gBnIQPiFHfCMehRhTa77_TJU6_d0PWL1qhdx-9-jA2gveoDs__4z1wSOywhdYnB4TjSXUqvssMqkDv7Vdw8FMv7xr9VBdfk9cBTHXfQKRvjkRlqTthI6aKDnvC3qexbhn1xGTdJVWEt7zK75S45KsyhnSK57lMQfBZpepJaHANbtAh7VXApycoSbVdyv6Ryqo2S99CDtwrz5i6WLJ5ivkvejvE9zT-K7a-_77skYAU_UwvCal]--></g></svg>