<svg xmlns="http://www.w3.org/2000/svg" xmlns:xlink="http://www.w3.org/1999/xlink" contentStyleType="text/css" data-diagram-type="CLASS" height="422px" preserveAspectRatio="none" style="width:851px;height:422px;background:#FFFFFF;" version="1.1" viewBox="0 0 851 422" width="851px" zoomAndPan="magnify"><defs/><g><!--cluster it.unimi.di.prog2.h12--><g class="cluster" data-entity="it.unimi.di.prog2.h12" data-source-line="10" data-uid="ent0002" id="cluster_it.unimi.di.prog2.h12"><path d="M16.5,4 L163.5895,4 A3.75,3.75 0 0 1 166.0895,6.5 L173.0895,29.0679 L841.5,29.0679 A2.5,2.5 0 0 1 844,31.5679 L844,382.5 A2.5,2.5 0 0 1 841.5,385 L16.5,385 A2.5,2.5 0 0 1 14,382.5 L14,6.5 A2.5,2.5 0 0 1 16.5,4" fill="none" style="stroke:#000000;stroke-width:1.5;"/><line style="stroke:#000000;stroke-width:1.5;" x1="14" x2="173.0895" y1="29.0679" y2="29.0679"/><text fill="#000000" font-family="sans-serif" font-size="14" font-weight="bold" lengthAdjust="spacing" textLength="146.0895" x="18" y="20.9659">it.unimi.di.prog2.h12</text></g><!--class CurrencyAmountClient--><g class="entity" data-entity="CurrencyAmountClient" data-source-line="12" data-uid="ent0003" id="entity_CurrencyAmountClient"><a href="CurrencyAmountClient.html" target="_top" title="CurrencyAmountClient.html" xlink:actuate="onRequest" xlink:href="CurrencyAmountClient.html" xlink:show="new" xlink:title="CurrencyAmountClient.html" xlink:type="simple"><rect fill="#F1F1F1" height="67.0679" rx="2.5" ry="2.5" style="stroke:#181818;stroke-width:0.5;" width="182.0094" x="438" y="120"/><ellipse cx="453" cy="136" fill="#ADD1B2" rx="11" ry="11" style="stroke:#181818;stroke-width:1;"/><path d="M455.9688,141.6406 Q455.3906,141.9375 454.75,142.0781 Q454.1094,142.2344 453.4063,142.2344 Q450.9063,142.2344 449.5781,140.5938 Q448.2656,138.9375 448.2656,135.8125 Q448.2656,132.6875 449.5781,131.0313 Q450.9063,129.375 453.4063,129.375 Q454.1094,129.375 454.75,129.5313 Q455.4063,129.6875 455.9688,129.9844 L455.9688,132.7031 Q455.3438,132.125 454.75,131.8594 Q454.1563,131.5781 453.5313,131.5781 Q452.1875,131.5781 451.5,132.6563 Q450.8125,133.7188 450.8125,135.8125 Q450.8125,137.9063 451.5,138.9844 Q452.1875,140.0469 453.5313,140.0469 Q454.1563,140.0469 454.75,139.7813 Q455.3438,139.5 455.9688,138.9219 L455.9688,141.6406 Z " fill="#000000"/><text fill="#000000" font-family="sans-serif" font-size="14" lengthAdjust="spacing" textLength="150.0094" x="467" y="141.432">CurrencyAmountClient</text><line style="stroke:#181818;stroke-width:0.5;" x1="439" x2="619.0094" y1="152" y2="152"/><line style="stroke:#181818;stroke-width:0.5;" x1="439" x2="619.0094" y1="160" y2="160"/><ellipse cx="449" cy="175.034" fill="#84BE84" rx="3" ry="3" style="stroke:#038048;stroke-width:1;"/><text fill="#000000" font-family="sans-serif" font-size="14" lengthAdjust="spacing" text-decoration="underline" textLength="125.4115" x="458" y="178.9659">main(String[]): void</text></a></g><!--class GuestList--><g class="entity" data-entity="GuestList" data-source-line="16" data-uid="ent0004" id="entity_GuestList"><a href="GuestList.html" target="_top" title="GuestList.html" xlink:actuate="onRequest" xlink:href="GuestList.html" xlink:show="new" xlink:title="GuestList.html" xlink:type="simple"><rect fill="#F1F1F1" height="162.4075" rx="2.5" ry="2.5" style="stroke:#181818;stroke-width:0.5;" width="198.4373" x="638" y="72.5"/><ellipse cx="702.3648" cy="88.5" fill="#ADD1B2" rx="11" ry="11" style="stroke:#181818;stroke-width:1;"/><path d="M705.3335,94.1406 Q704.7554,94.4375 704.1148,94.5781 Q703.4742,94.7344 702.771,94.7344 Q700.271,94.7344 698.9429,93.0938 Q697.6304,91.4375 697.6304,88.3125 Q697.6304,85.1875 698.9429,83.5313 Q700.271,81.875 702.771,81.875 Q703.4742,81.875 704.1148,82.0313 Q704.771,82.1875 705.3335,82.4844 L705.3335,85.2031 Q704.7085,84.625 704.1148,84.3594 Q703.521,84.0781 702.896,84.0781 Q701.5523,84.0781 700.8648,85.1563 Q700.1773,86.2188 700.1773,88.3125 Q700.1773,90.4063 700.8648,91.4844 Q701.5523,92.5469 702.896,92.5469 Q703.521,92.5469 704.1148,92.2813 Q704.7085,92 705.3335,91.4219 L705.3335,94.1406 Z " fill="#000000"/><text fill="#000000" font-family="sans-serif" font-size="14" lengthAdjust="spacing" textLength="61.2078" x="722.8648" y="93.932">GuestList</text><line style="stroke:#181818;stroke-width:0.5;" x1="639" x2="835.4373" y1="104.5" y2="104.5"/><rect fill="none" height="6" style="stroke:#C82930;stroke-width:1;" width="6" x="646" y="116.534"/><text fill="#000000" font-family="sans-serif" font-size="14" lengthAdjust="spacing" textLength="129.1355" x="658" y="123.4659">guests: List&lt;String&gt;</text><rect fill="none" height="6" style="stroke:#C82930;stroke-width:1;" width="6" x="646" y="135.6019"/><text fill="#000000" font-family="sans-serif" font-size="14" lengthAdjust="spacing" textLength="78.2737" x="658" y="142.5339">capacity: int</text><line style="stroke:#181818;stroke-width:0.5;" x1="639" x2="835.4373" y1="150.6358" y2="150.6358"/><ellipse cx="649" cy="165.6698" fill="#84BE84" rx="3" ry="3" style="stroke:#038048;stroke-width:1;"/><text fill="#000000" font-family="sans-serif" font-size="14" lengthAdjust="spacing" textLength="86.9257" x="658" y="169.6018">GuestList(int)</text><ellipse cx="649" cy="184.7377" fill="#84BE84" rx="3" ry="3" style="stroke:#038048;stroke-width:1;"/><text fill="#000000" font-family="sans-serif" font-size="14" lengthAdjust="spacing" textLength="172.4373" x="658" y="188.6697">GuestList(List&lt;String&gt;, int)</text><ellipse cx="649" cy="203.8056" fill="#84BE84" rx="3" ry="3" style="stroke:#038048;stroke-width:1;"/><text fill="#000000" font-family="sans-serif" font-size="14" lengthAdjust="spacing" textLength="137.5355" x="658" y="207.7376">guests(): List&lt;String&gt;</text><ellipse cx="649" cy="222.8735" fill="#84BE84" rx="3" ry="3" style="stroke:#038048;stroke-width:1;"/><text fill="#000000" font-family="sans-serif" font-size="14" lengthAdjust="spacing" textLength="118.9295" x="658" y="226.8055">invite(String): void</text></a></g><!--class GuestListClient--><g class="entity" data-entity="GuestListClient" data-source-line="25" data-uid="ent0005" id="entity_GuestListClient"><a href="GuestListClient.html" target="_top" title="GuestListClient.html" xlink:actuate="onRequest" xlink:href="GuestListClient.html" xlink:show="new" xlink:title="GuestListClient.html" xlink:type="simple"><rect fill="#F1F1F1" height="67.0679" rx="2.5" ry="2.5" style="stroke:#181818;stroke-width:0.5;" width="151.4115" x="453.5" y="310"/><ellipse cx="477.7385" cy="326" fill="#ADD1B2" rx="11" ry="11" style="stroke:#181818;stroke-width:1;"/><path d="M480.7072,331.6406 Q480.1291,331.9375 479.4885,332.0781 Q478.8478,332.2344 478.1447,332.2344 Q475.6447,332.2344 474.3166,330.5938 Q473.0041,328.9375 473.0041,325.8125 Q473.0041,322.6875 474.3166,321.0313 Q475.6447,319.375 478.1447,319.375 Q478.8478,319.375 479.4885,319.5313 Q480.1447,319.6875 480.7072,319.9844 L480.7072,322.7031 Q480.0822,322.125 479.4885,321.8594 Q478.8947,321.5781 478.2697,321.5781 Q476.926,321.5781 476.2385,322.6563 Q475.551,323.7188 475.551,325.8125 Q475.551,327.9063 476.2385,328.9844 Q476.926,330.0469 478.2697,330.0469 Q478.8947,330.0469 479.4885,329.7813 Q480.0822,329.5 480.7072,328.9219 L480.7072,331.6406 Z " fill="#000000"/><text fill="#000000" font-family="sans-serif" font-size="14" lengthAdjust="spacing" textLength="98.8816" x="493.7915" y="331.432">GuestListClient</text><line style="stroke:#181818;stroke-width:0.5;" x1="454.5" x2="603.9115" y1="342" y2="342"/><line style="stroke:#181818;stroke-width:0.5;" x1="454.5" x2="603.9115" y1="350" y2="350"/><ellipse cx="464.5" cy="365.034" fill="#84BE84" rx="3" ry="3" style="stroke:#038048;stroke-width:1;"/><text fill="#000000" font-family="sans-serif" font-size="14" lengthAdjust="spacing" text-decoration="underline" textLength="125.4115" x="473.5" y="368.9659">main(String[]): void</text></a></g><!--class CurrencyAmount--><g class="entity" data-entity="CurrencyAmount" data-source-line="29" data-uid="ent0006" id="entity_CurrencyAmount"><a href="CurrencyAmount.html" target="_top" title="CurrencyAmount.html" xlink:actuate="onRequest" xlink:href="CurrencyAmount.html" xlink:show="new" xlink:title="CurrencyAmount.html" xlink:type="simple"><rect fill="#F1F1F1" height="238.6792" rx="2.5" ry="2.5" style="stroke:#181818;stroke-width:0.5;" width="342.7068" x="22.5" y="34"/><ellipse cx="133.4356" cy="50" fill="#ADD1B2" rx="11" ry="11" style="stroke:#181818;stroke-width:1;"/><path d="M136.4044,55.6406 Q135.8263,55.9375 135.1856,56.0781 Q134.545,56.2344 133.8419,56.2344 Q131.3419,56.2344 130.0138,54.5938 Q128.7013,52.9375 128.7013,49.8125 Q128.7013,46.6875 130.0138,45.0313 Q131.3419,43.375 133.8419,43.375 Q134.545,43.375 135.1856,43.5313 Q135.8419,43.6875 136.4044,43.9844 L136.4044,46.7031 Q135.7794,46.125 135.1856,45.8594 Q134.5919,45.5781 133.9669,45.5781 Q132.6231,45.5781 131.9356,46.6563 Q131.2481,47.7188 131.2481,49.8125 Q131.2481,51.9063 131.9356,52.9844 Q132.6231,54.0469 133.9669,54.0469 Q134.5919,54.0469 135.1856,53.7813 Q135.7794,53.5 136.4044,52.9219 L136.4044,55.6406 Z " fill="#000000"/><text fill="#000000" font-family="sans-serif" font-size="14" lengthAdjust="spacing" textLength="112.3356" x="153.9356" y="55.432">CurrencyAmount</text><line style="stroke:#181818;stroke-width:0.5;" x1="23.5" x2="364.2068" y1="66" y2="66"/><rect fill="none" height="6" style="stroke:#C82930;stroke-width:1;" width="6" x="30.5" y="78.034"/><text fill="#000000" font-family="sans-serif" font-size="14" lengthAdjust="spacing" textLength="59.7378" x="42.5" y="84.9659">cents: int</text><line style="stroke:#181818;stroke-width:0.5;" x1="23.5" x2="364.2068" y1="93.0679" y2="93.0679"/><rect fill="#F24D5C" height="6" style="stroke:#C82930;stroke-width:1;" width="6" x="30.5" y="105.1019"/><text fill="#000000" font-family="sans-serif" font-size="14" lengthAdjust="spacing" textLength="138.0535" x="42.5" y="112.0339">CurrencyAmount(int)</text><ellipse cx="33.5" cy="127.1698" fill="#84BE84" rx="3" ry="3" style="stroke:#038048;stroke-width:1;"/><text fill="#000000" font-family="sans-serif" font-size="14" lengthAdjust="spacing" text-decoration="underline" textLength="221.2271" x="42.5" y="131.1018">positive(int, int): CurrencyAmount</text><ellipse cx="33.5" cy="146.2377" fill="#84BE84" rx="3" ry="3" style="stroke:#038048;stroke-width:1;"/><text fill="#000000" font-family="sans-serif" font-size="14" lengthAdjust="spacing" text-decoration="underline" textLength="226.8411" x="42.5" y="150.1697">negative(int, int): CurrencyAmount</text><ellipse cx="33.5" cy="165.3056" fill="#84BE84" rx="3" ry="3" style="stroke:#038048;stroke-width:1;"/><text fill="#000000" font-family="sans-serif" font-size="14" lengthAdjust="spacing" text-decoration="underline" textLength="316.7068" x="42.5" y="169.2376">parseCurrencyAmount(String): CurrencyAmount</text><ellipse cx="33.5" cy="184.3735" fill="#84BE84" rx="3" ry="3" style="stroke:#038048;stroke-width:1;"/><text fill="#000000" font-family="sans-serif" font-size="14" lengthAdjust="spacing" textLength="60.6898" x="42.5" y="188.3055">sign(): int</text><ellipse cx="33.5" cy="203.4415" fill="#84BE84" rx="3" ry="3" style="stroke:#038048;stroke-width:1;"/><text fill="#000000" font-family="sans-serif" font-size="14" lengthAdjust="spacing" textLength="68.1377" x="42.5" y="207.3734">cents(): int</text><ellipse cx="33.5" cy="222.5094" fill="#84BE84" rx="3" ry="3" style="stroke:#038048;stroke-width:1;"/><text fill="#000000" font-family="sans-serif" font-size="14" lengthAdjust="spacing" textLength="65.7857" x="42.5" y="226.4414">units(): int</text><ellipse cx="33.5" cy="241.5773" fill="#84BE84" rx="3" ry="3" style="stroke:#038048;stroke-width:1;"/><text fill="#000000" font-family="sans-serif" font-size="14" lengthAdjust="spacing" textLength="289.6729" x="42.5" y="245.5093">somma(CurrencyAmount): CurrencyAmount</text><ellipse cx="33.5" cy="260.6452" fill="#84BE84" rx="3" ry="3" style="stroke:#038048;stroke-width:1;"/><text fill="#000000" font-family="sans-serif" font-size="14" lengthAdjust="spacing" textLength="282.9949" x="42.5" y="264.5772">sottrai(CurrencyAmount): CurrencyAmount</text></a></g><g class="link" data-entity-1="CurrencyAmount" data-entity-2="CurrencyAmount" data-uid="lnk7" id="link_CurrencyAmount_CurrencyAmount"><polygon fill="#181818" points="365.6889,171.856,375.5255,172.3458,370.3533,170.055,372.644,164.8828,365.6889,171.856" style="stroke:#181818;stroke-width:1;"/><path d="M365.6889,135.144 C376.7897,139.4302 383.5,145.5488 383.5,153.5 C383.5,161.4512 382.387,165.4087 371.2861,169.6948" fill="none" style="stroke:#181818;stroke-width:1;"/><text fill="#000000" font-family="sans-serif" font-size="13" lengthAdjust="spacing" textLength="32.903" x="385.5" y="158.897">ZERO</text></g><g class="footer" data-source-line="52"><text fill="#888888" font-family="sans-serif" font-size="10" lengthAdjust="spacing" textLength="2.6" x="416.2" y="397.69">&#160;</text><a href="https://github.com/talsma-ict/umldoclet" target="_top" title="https://github.com/talsma-ict/umldoclet" xlink:actuate="onRequest" xlink:href="https://github.com/talsma-ict/umldoclet" xlink:show="new" xlink:title="https://github.com/talsma-ict/umldoclet" xlink:type="simple"><text fill="#888888" font-family="sans-serif" font-size="10" lengthAdjust="spacing" textLength="76.7199" x="379.14" y="411.31">UMLDoclet 2.2.3</text></a></g><!--SRC=[hLNVRvim47xlNt7J7fOeXG39rWvLbQAiwZPbsjIcBylou88BLetDx2CJglg_pmP60qcwQXel9BuVttVVdGy0W3SmbtcfM98Ye0HCcOQRBmiW8eQ42ge8qXXOHXAguPPoAH9TEr8W1QPIWRoh_aLIAQfpAM8c4lXCDWIqB5H4jNjq11NKya_sNqHlPRyjxU476N6AC9WFjoW5dl_E2RpWBIm9rnc1J_EbssHxYWdSm9s0oSrPH8KsAGiHKrNHckKaCgz5RJc63LMQIM5Yl2QFBJMI0WaJ6dAYKDkIld4Yq7BrNOlldi1WThteSlFULzoEOQO4AMAuaZ-BjjnNkIA9OSn9AGi4dL4aWbGcRJXhQg086lt2i0umHE-DpC3GBGJBc1ipDrSo2TpK3-2XTh9Fn8dMC2-CtY8gPvai1Cuvem9XjTftxAQOyVNQv82jvq4ZGHOzmYWpfG-kKPd6hTR343QInQthOn_uqjI82wOjMljxFuIJMBiEmRgSrGZdNO-8cBePbY4mWHtJg4q-CARX8TjswcFOzQmf38RFa1WniM586mbUBa0hUk_a_-hTxUXEYmyeRyRT2jyNrUa6xohxn3ANcY7RKEjJ2nlsk1m853GX_nHeReIcFO9jJvx9CD8i4RR3EoDKgR3NOgxO0OkMMKO6NRY_uKj4HTYBWveUDw-z5puCUtrtdFENUORm_UBgQvtwJ6F9wTEqtqc9PZ5sP-LZcLErOE9-BhdPHwzFzrjlx4xbJ52pngDxGSreUbiLLN3ZBRm6wuTOhLB4N8VZSS8mBMxTI6PZhFQvmo8S5ncFwqNUM-dhTREYBzjlXTstZXyu_cJfdOJJIUXFtCbqUXhumQa_ylpGyrONXP8v7L_9ZAv_0m00]--></g></svg>