<svg xmlns="http://www.w3.org/2000/svg" xmlns:xlink="http://www.w3.org/1999/xlink" contentStyleType="text/css" data-diagram-type="CLASS" height="111px" preserveAspectRatio="none" style="width:209px;height:111px;background:#FFFFFF;" version="1.1" viewBox="0 0 209 111" width="209px" zoomAndPan="magnify"><defs/><g><!--class it.unimi.di.prog2.s05.ArrayUtils--><g class="entity" data-entity="it.unimi.di.prog2.s05.ArrayUtils" data-source-line="13" data-uid="ent0002" id="entity_it.unimi.di.prog2.s05.ArrayUtils"><a href="ArrayUtils.html" target="_top" title="ArrayUtils.html" xlink:actuate="onRequest" xlink:href="ArrayUtils.html" xlink:show="new" xlink:title="ArrayUtils.html" xlink:type="simple"><rect fill="#F1F1F1" height="69.7558" rx="2.5" ry="2.5" style="stroke:#181818;stroke-width:0.5;" width="196.5893" x="6" y="12"/><ellipse cx="51.5747" cy="33.344" fill="#ADD1B2" rx="11" ry="11" style="stroke:#181818;stroke-width:1;"/><path d="M54.5435,38.9846 Q53.9653,39.2815 53.3247,39.4221 Q52.6841,39.5783 51.981,39.5783 Q49.481,39.5783 48.1528,37.9377 Q46.8403,36.2815 46.8403,33.1565 Q46.8403,30.0315 48.1528,28.3752 Q49.481,26.719 51.981,26.719 Q52.6841,26.719 53.3247,26.8752 Q53.981,27.0315 54.5435,27.3283 L54.5435,30.0471 Q53.9185,29.469 53.3247,29.2033 Q52.731,28.9221 52.106,28.9221 Q50.7622,28.9221 50.0747,30.0002 Q49.3872,31.0627 49.3872,33.1565 Q49.3872,35.2502 50.0747,36.3283 Q50.7622,37.3908 52.106,37.3908 Q52.731,37.3908 53.3247,37.1252 Q53.9185,36.844 54.5435,36.2658 L54.5435,38.9846 Z " fill="#000000"/><text fill="#000000" font-family="sans-serif" font-size="14" lengthAdjust="spacing" textLength="64.7218" x="88.1838" y="31.9659">ArrayUtils</text><text fill="#000000" font-family="sans-serif" font-size="10" lengthAdjust="spacing" textLength="96.9399" x="72.0747" y="46.7579">it.unimi.di.prog2.s05</text><line style="stroke:#181818;stroke-width:0.5;" x1="7" x2="201.5893" y1="54.6879" y2="54.6879"/><polygon fill="#4177AF" points="17,65.7219,13,71.7219,21,71.7219" style="stroke:#1963A0;stroke-width:1;"/><text fill="#000000" font-family="sans-serif" font-size="14" lengthAdjust="spacing" text-decoration="underline" textLength="170.5893" x="26" y="73.6538">binarySearch(int[], int): int</text></a></g><g class="footer" data-source-line="23"><text fill="#888888" font-family="sans-serif" font-size="10" lengthAdjust="spacing" textLength="2.6" x="99.7" y="86.69">&#160;</text><a href="https://github.com/talsma-ict/umldoclet" target="_top" title="https://github.com/talsma-ict/umldoclet" xlink:actuate="onRequest" xlink:href="https://github.com/talsma-ict/umldoclet" xlink:show="new" xlink:title="https://github.com/talsma-ict/umldoclet" xlink:type="simple"><text fill="#888888" font-family="sans-serif" font-size="10" lengthAdjust="spacing" textLength="76.7199" x="62.64" y="100.31">UMLDoclet 2.2.3</text></a></g><!--SRC=[RL9DRzim3BttLt3TOIsMABBJhcbG50YoOH_8WA59JsaEZCpQGcN9a-WENj7zzibEbcH5TP0WKdhlaNm00EzWwgh6wxnWO0TSw02ttsU0DeESB7baoa2Nc5E0DHbdyx1vI80r5yw3k-zkodbFeN8sqpQ7R_Y845pj5GLnT0GTrU8V-YyC1-ZhfWr-TCeGmydqz41IAfCF_LIcvx104qg4hzE5sABj_wGY5KE8s4OhiY52rZOZtycQLAZYCTjaUl18FcXdun-vnMbBLSuoQXkWGi-XBUc7GSkjraIq_E82JYRpsV_Qv6MdhGSJRx7EuCRzh7Vblgayvb6nmSRL3A4aHekRN8YYBPQnNQXeJf4KENRIEajTlj0P0PKLDt2loMJXPJI25Iw6kxWo608SNmNzcyR9sVN4UsnkMPjmPxT1UQrPr5QNMcHQLDxbgGZo_1ZY85xDY3q8B9VxYoYuDAiLF7NCxNeAZApLC_nPQuk-cHDwLPneoyjL3-9nEcxtxltpHl1LuCRGzGxYtZcEuzfZjkjBKv6VQVimTIRsvktezUnjEscZBKLpgGTBiHDoz_9vGpSuuDjotTdbic2kmdWmo3KNzLeeLmwuSrbVAnxKfSaszdfXjDLgQvpFEmUtBkWdQJyPBkJ5-6mOfo3EHibb8eSZ-LucOocNdshlAXhSk99MVm40]--></g></svg>