<svg xmlns="http://www.w3.org/2000/svg" xmlns:xlink="http://www.w3.org/1999/xlink" contentStyleType="text/css" data-diagram-type="CLASS" height="111px" preserveAspectRatio="none" style="width:164px;height:111px;background:#FFFFFF;" version="1.1" viewBox="0 0 164 111" width="164px" zoomAndPan="magnify"><defs/><g><!--class it.unimi.di.prog2.h11.DensePolyClient--><g class="entity" data-entity="it.unimi.di.prog2.h11.DensePolyClient" data-source-line="13" data-uid="ent0002" id="entity_it.unimi.di.prog2.h11.DensePolyClient"><a href="DensePolyClient.html" target="_top" title="DensePolyClient.html" xlink:actuate="onRequest" xlink:href="DensePolyClient.html" xlink:show="new" xlink:title="DensePolyClient.html" xlink:type="simple"><rect fill="#F1F1F1" height="69.7558" rx="2.5" ry="2.5" style="stroke:#181818;stroke-width:0.5;" width="151.4115" x="6" y="12"/><ellipse cx="26.7042" cy="33.344" fill="#ADD1B2" rx="11" ry="11" style="stroke:#181818;stroke-width:1;"/><path d="M29.6729,38.9846 Q29.0948,39.2815 28.4542,39.4221 Q27.8136,39.5783 27.1104,39.5783 Q24.6104,39.5783 23.2823,37.9377 Q21.9698,36.2815 21.9698,33.1565 Q21.9698,30.0315 23.2823,28.3752 Q24.6104,26.719 27.1104,26.719 Q27.8136,26.719 28.4542,26.8752 Q29.1104,27.0315 29.6729,27.3283 L29.6729,30.0471 Q29.0479,29.469 28.4542,29.2033 Q27.8604,28.9221 27.2354,28.9221 Q25.8917,28.9221 25.2042,30.0002 Q24.5167,31.0627 24.5167,33.1565 Q24.5167,35.2502 25.2042,36.3283 Q25.8917,37.3908 27.2354,37.3908 Q27.8604,37.3908 28.4542,37.1252 Q29.0479,36.844 29.6729,36.2658 L29.6729,38.9846 Z " fill="#000000"/><text fill="#000000" font-family="sans-serif" font-size="14" lengthAdjust="spacing" textLength="106.7356" x="41.9718" y="31.9659">DensePolyClient</text><text fill="#000000" font-family="sans-serif" font-size="10" lengthAdjust="spacing" textLength="98.3299" x="46.1746" y="46.7579">it.unimi.di.prog2.h11</text><line style="stroke:#181818;stroke-width:0.5;" x1="7" x2="156.4115" y1="54.6879" y2="54.6879"/><ellipse cx="17" cy="69.7219" fill="#84BE84" rx="3" ry="3" style="stroke:#038048;stroke-width:1;"/><text fill="#000000" font-family="sans-serif" font-size="14" lengthAdjust="spacing" text-decoration="underline" textLength="125.4115" x="26" y="73.6538">main(String[]): void</text></a></g><g class="footer" data-source-line="23"><text fill="#888888" font-family="sans-serif" font-size="10" lengthAdjust="spacing" textLength="2.6" x="76.7" y="86.69">&#160;</text><a href="https://github.com/talsma-ict/umldoclet" target="_top" title="https://github.com/talsma-ict/umldoclet" xlink:actuate="onRequest" xlink:href="https://github.com/talsma-ict/umldoclet" xlink:show="new" xlink:title="https://github.com/talsma-ict/umldoclet" xlink:type="simple"><text fill="#888888" font-family="sans-serif" font-size="10" lengthAdjust="spacing" textLength="76.7199" x="39.64" y="100.31">UMLDoclet 2.2.3</text></a></g><!--SRC=[RLBBRjim4BpdAxRfeGuIKm-xIIm41Wodw0Ck4CJEIT61bjOI4OfKoPKBDV2_bv9SnpN2Yw1zpCpk3W309vZhgZ4YBmX80nN2mjFF1N2LGOuA3IVCG9GyHmjhb5hbjYz4u3KLse3UT7-fDWPjfLKcL0u_-9Q3rRL9qRApC-YeLl_GVtDxXBvksk2zJYKI3EONHv92FxWUXdxu6LPSsfB3z_cAxT7UUa8MiX4uR2bILDP1rYf3qycQLJnrdqMVkO8j6YkqSZt-7gSTDTMAk50MAcx8jYCzIAwerHgmbf_Tm62sNFolpPzqsgvWPXIlCtZKl-h3k1ygmtEdMF96rmIsHEAAzpdhH2jUkdNn59VeI3cvJIgjiCiN8aF0ig86DW9bPa-Z3gpGBjp5KycjXVCxA_vW58odz-sa3resSobGqRFQP_of85OhKGgM2LOPdOUi289pSDTuDyDEa22EJoAie58c2RnsGjhtQecJI7TmMRg53fPad1tYv2A2hHPPLxRhPTzPQYHE3vqRhSaTxGsgVT-Q2ir2g9Uvbcv37s_VppwrzvP2eRDO-gBGxSC_LEvwEk-8Ry_rhEAu8Afiv7cveA9UirIN7dLU6ugKlBgKMM-o4xiboTu-Nmy-Rhqm3C9XC5hvDz5u50KZDXa7jy7eUZAvz8F8z-CljT4LUe-wnEGl]--></g></svg>